<mxfile host="Electron" agent="Mozilla/5.0 (Windows NT 10.0; Win64; x64) AppleWebKit/537.36 (KHTML, like Gecko) draw.io/24.7.17 Chrome/128.0.6613.36 Electron/32.0.1 Safari/537.36" version="24.7.17">
  <diagram name="Page-1" id="t49bUalGkOgk-9BUWiEc">
    <mxGraphModel dx="1434" dy="836" grid="1" gridSize="10" guides="1" tooltips="1" connect="1" arrows="1" fold="1" page="1" pageScale="1" pageWidth="1169" pageHeight="827" math="0" shadow="0">
      <root>
        <mxCell id="0" />
        <mxCell id="1" parent="0" />
        <mxCell id="8p0Jh4itUdJ0mji6k-67-33" value="" style="ellipse;whiteSpace=wrap;html=1;" vertex="1" parent="1">
          <mxGeometry x="590" y="330" width="160" height="30" as="geometry" />
        </mxCell>
        <mxCell id="8p0Jh4itUdJ0mji6k-67-1" value="" style="rounded=0;whiteSpace=wrap;html=1;" vertex="1" parent="1">
          <mxGeometry x="400" y="230" width="490" height="60" as="geometry" />
        </mxCell>
        <mxCell id="8p0Jh4itUdJ0mji6k-67-2" value="Hyper V / Carte réseau 1" style="text;html=1;align=center;verticalAlign=middle;whiteSpace=wrap;rounded=0;" vertex="1" parent="1">
          <mxGeometry x="400" y="260" width="100" height="30" as="geometry" />
        </mxCell>
        <mxCell id="8p0Jh4itUdJ0mji6k-67-3" value="Hyper V / Carte réseau 2 - Eth1" style="text;html=1;align=center;verticalAlign=middle;whiteSpace=wrap;rounded=0;" vertex="1" parent="1">
          <mxGeometry x="540" y="260" width="100" height="30" as="geometry" />
        </mxCell>
        <mxCell id="8p0Jh4itUdJ0mji6k-67-4" value="VM-TEST" style="rounded=0;whiteSpace=wrap;html=1;" vertex="1" parent="1">
          <mxGeometry x="330" y="640" width="210" height="60" as="geometry" />
        </mxCell>
        <mxCell id="8p0Jh4itUdJ0mji6k-67-5" value="vCarte réseau 1 (VLAN101)" style="text;html=1;align=center;verticalAlign=middle;whiteSpace=wrap;rounded=0;" vertex="1" parent="1">
          <mxGeometry x="330" y="610" width="100" height="30" as="geometry" />
        </mxCell>
        <mxCell id="8p0Jh4itUdJ0mji6k-67-6" value="vCarte réseau 2&lt;div&gt;(VLAN100)&lt;/div&gt;" style="text;html=1;align=center;verticalAlign=middle;whiteSpace=wrap;rounded=0;" vertex="1" parent="1">
          <mxGeometry x="440" y="610" width="100" height="30" as="geometry" />
        </mxCell>
        <mxCell id="8p0Jh4itUdJ0mji6k-67-7" value="Switch virtuel (mode externe) -&amp;nbsp;vSwitch-Trunk" style="rounded=0;whiteSpace=wrap;html=1;" vertex="1" parent="1">
          <mxGeometry x="570" y="400" width="200" height="60" as="geometry" />
        </mxCell>
        <mxCell id="8p0Jh4itUdJ0mji6k-67-8" value="" style="endArrow=classic;html=1;rounded=0;" edge="1" parent="1" target="8p0Jh4itUdJ0mji6k-67-2">
          <mxGeometry width="50" height="50" relative="1" as="geometry">
            <mxPoint x="310" y="275" as="sourcePoint" />
            <mxPoint x="430" y="100" as="targetPoint" />
          </mxGeometry>
        </mxCell>
        <mxCell id="8p0Jh4itUdJ0mji6k-67-9" value="Carte réseau de management&lt;div&gt;&lt;br&gt;&lt;/div&gt;&lt;div&gt;10.2.10.16&lt;/div&gt;" style="text;html=1;align=center;verticalAlign=middle;whiteSpace=wrap;rounded=0;" vertex="1" parent="1">
          <mxGeometry x="240" y="260" width="60" height="30" as="geometry" />
        </mxCell>
        <mxCell id="8p0Jh4itUdJ0mji6k-67-13" value="" style="endArrow=classic;startArrow=classic;html=1;rounded=0;exitX=0.3;exitY=1;exitDx=0;exitDy=0;exitPerimeter=0;" edge="1" parent="1" source="8p0Jh4itUdJ0mji6k-67-7">
          <mxGeometry width="50" height="50" relative="1" as="geometry">
            <mxPoint x="420" y="550" as="sourcePoint" />
            <mxPoint x="480" y="610" as="targetPoint" />
          </mxGeometry>
        </mxCell>
        <mxCell id="8p0Jh4itUdJ0mji6k-67-16" value="Switch Aruba" style="rounded=0;whiteSpace=wrap;html=1;" vertex="1" parent="1">
          <mxGeometry x="420" y="70" width="340" height="60" as="geometry" />
        </mxCell>
        <mxCell id="8p0Jh4itUdJ0mji6k-67-22" value="1/28" style="text;html=1;align=center;verticalAlign=middle;whiteSpace=wrap;rounded=0;" vertex="1" parent="1">
          <mxGeometry x="400" y="160" width="60" height="30" as="geometry" />
        </mxCell>
        <mxCell id="8p0Jh4itUdJ0mji6k-67-23" value="1/26" style="text;html=1;align=center;verticalAlign=middle;whiteSpace=wrap;rounded=0;" vertex="1" parent="1">
          <mxGeometry x="660" y="160" width="60" height="30" as="geometry" />
        </mxCell>
        <mxCell id="8p0Jh4itUdJ0mji6k-67-25" value="" style="endArrow=classic;startArrow=classic;html=1;rounded=0;entryX=0.8;entryY=1;entryDx=0;entryDy=0;entryPerimeter=0;" edge="1" parent="1" target="8p0Jh4itUdJ0mji6k-67-3">
          <mxGeometry width="50" height="50" relative="1" as="geometry">
            <mxPoint x="620" y="400" as="sourcePoint" />
            <mxPoint x="685" y="297" as="targetPoint" />
          </mxGeometry>
        </mxCell>
        <mxCell id="8p0Jh4itUdJ0mji6k-67-26" value="1/27" style="text;html=1;align=center;verticalAlign=middle;whiteSpace=wrap;rounded=0;" vertex="1" parent="1">
          <mxGeometry x="530" y="160" width="60" height="30" as="geometry" />
        </mxCell>
        <mxCell id="8p0Jh4itUdJ0mji6k-67-30" value="Hyper V / Carte réseau 3 - Eth2" style="text;html=1;align=center;verticalAlign=middle;whiteSpace=wrap;rounded=0;" vertex="1" parent="1">
          <mxGeometry x="670" y="260" width="100" height="30" as="geometry" />
        </mxCell>
        <mxCell id="8p0Jh4itUdJ0mji6k-67-31" value="" style="endArrow=classic;startArrow=classic;html=1;rounded=0;entryX=0.5;entryY=1;entryDx=0;entryDy=0;exitX=0.75;exitY=0;exitDx=0;exitDy=0;" edge="1" parent="1" source="8p0Jh4itUdJ0mji6k-67-7" target="8p0Jh4itUdJ0mji6k-67-30">
          <mxGeometry width="50" height="50" relative="1" as="geometry">
            <mxPoint x="705" y="380" as="sourcePoint" />
            <mxPoint x="755" y="330" as="targetPoint" />
          </mxGeometry>
        </mxCell>
        <mxCell id="8p0Jh4itUdJ0mji6k-67-34" value="" style="endArrow=classic;startArrow=classic;html=1;rounded=0;exitX=0.3;exitY=1;exitDx=0;exitDy=0;exitPerimeter=0;" edge="1" parent="1">
          <mxGeometry width="50" height="50" relative="1" as="geometry">
            <mxPoint x="590" y="460" as="sourcePoint" />
            <mxPoint x="440" y="610" as="targetPoint" />
          </mxGeometry>
        </mxCell>
        <mxCell id="8p0Jh4itUdJ0mji6k-67-35" value="VM-02" style="rounded=0;whiteSpace=wrap;html=1;" vertex="1" parent="1">
          <mxGeometry x="720" y="640" width="90" height="60" as="geometry" />
        </mxCell>
        <mxCell id="8p0Jh4itUdJ0mji6k-67-36" value="vCarte réseau 1 (VLAN101)" style="text;html=1;align=center;verticalAlign=middle;whiteSpace=wrap;rounded=0;" vertex="1" parent="1">
          <mxGeometry x="720" y="610" width="100" height="30" as="geometry" />
        </mxCell>
        <mxCell id="8p0Jh4itUdJ0mji6k-67-38" value="" style="endArrow=classic;startArrow=classic;html=1;rounded=0;entryX=0.71;entryY=1.033;entryDx=0;entryDy=0;entryPerimeter=0;" edge="1" parent="1" source="8p0Jh4itUdJ0mji6k-67-36" target="8p0Jh4itUdJ0mji6k-67-7">
          <mxGeometry width="50" height="50" relative="1" as="geometry">
            <mxPoint x="680" y="590" as="sourcePoint" />
            <mxPoint x="730" y="540" as="targetPoint" />
          </mxGeometry>
        </mxCell>
        <mxCell id="8p0Jh4itUdJ0mji6k-67-42" value="Hyper V / Carte réseau 4 - Eth3" style="text;html=1;align=center;verticalAlign=middle;whiteSpace=wrap;rounded=0;" vertex="1" parent="1">
          <mxGeometry x="790" y="260" width="100" height="30" as="geometry" />
        </mxCell>
        <mxCell id="8p0Jh4itUdJ0mji6k-67-43" value="Pas utilisée / Désactivée" style="text;html=1;align=center;verticalAlign=middle;whiteSpace=wrap;rounded=0;" vertex="1" parent="1">
          <mxGeometry x="950" y="250" width="70" height="30" as="geometry" />
        </mxCell>
        <mxCell id="8p0Jh4itUdJ0mji6k-67-44" value="" style="endArrow=classic;html=1;rounded=0;" edge="1" parent="1">
          <mxGeometry width="50" height="50" relative="1" as="geometry">
            <mxPoint x="950" y="274.5" as="sourcePoint" />
            <mxPoint x="890" y="274.5" as="targetPoint" />
          </mxGeometry>
        </mxCell>
        <mxCell id="8p0Jh4itUdJ0mji6k-67-45" value="10.2.10.18" style="text;html=1;align=center;verticalAlign=middle;whiteSpace=wrap;rounded=0;" vertex="1" parent="1">
          <mxGeometry x="460" y="670" width="60" height="30" as="geometry" />
        </mxCell>
        <mxCell id="8p0Jh4itUdJ0mji6k-67-46" value="10.2.11.18" style="text;html=1;align=center;verticalAlign=middle;whiteSpace=wrap;rounded=0;" vertex="1" parent="1">
          <mxGeometry x="340" y="670" width="60" height="30" as="geometry" />
        </mxCell>
        <mxCell id="8p0Jh4itUdJ0mji6k-67-47" value="" style="endArrow=classic;startArrow=classic;html=1;rounded=0;entryX=0.471;entryY=0.95;entryDx=0;entryDy=0;entryPerimeter=0;" edge="1" parent="1" target="8p0Jh4itUdJ0mji6k-67-16">
          <mxGeometry width="50" height="50" relative="1" as="geometry">
            <mxPoint x="580" y="230" as="sourcePoint" />
            <mxPoint x="630" y="180" as="targetPoint" />
          </mxGeometry>
        </mxCell>
        <mxCell id="8p0Jh4itUdJ0mji6k-67-48" value="" style="endArrow=classic;startArrow=classic;html=1;rounded=0;entryX=0.853;entryY=1.017;entryDx=0;entryDy=0;entryPerimeter=0;" edge="1" parent="1" target="8p0Jh4itUdJ0mji6k-67-16">
          <mxGeometry width="50" height="50" relative="1" as="geometry">
            <mxPoint x="710" y="230" as="sourcePoint" />
            <mxPoint x="760" y="180" as="targetPoint" />
          </mxGeometry>
        </mxCell>
        <mxCell id="8p0Jh4itUdJ0mji6k-67-49" value="" style="endArrow=classic;startArrow=classic;html=1;rounded=0;entryX=0.088;entryY=1;entryDx=0;entryDy=0;entryPerimeter=0;" edge="1" parent="1" target="8p0Jh4itUdJ0mji6k-67-16">
          <mxGeometry width="50" height="50" relative="1" as="geometry">
            <mxPoint x="450" y="230" as="sourcePoint" />
            <mxPoint x="500" y="180" as="targetPoint" />
          </mxGeometry>
        </mxCell>
        <mxCell id="8p0Jh4itUdJ0mji6k-67-50" value="&lt;span style=&quot;font-size:12.0pt;line-height:&lt;br/&gt;115%;font-family:&amp;quot;Cambria&amp;quot;,serif;mso-ascii-theme-font:minor-latin;mso-fareast-font-family:&lt;br/&gt;&amp;quot;MS Mincho&amp;quot;;mso-fareast-theme-font:minor-fareast;mso-hansi-theme-font:minor-latin;&lt;br/&gt;mso-bidi-font-family:&amp;quot;Times New Roman&amp;quot;;mso-bidi-theme-font:minor-bidi;&lt;br/&gt;mso-ansi-language:EN-US;mso-fareast-language:EN-US;mso-bidi-language:AR-SA&quot; lang=&quot;EN-US&quot;&gt;Switch&lt;br/&gt;Embedded Teaming (SET)&amp;nbsp;&lt;/span&gt;" style="text;html=1;align=center;verticalAlign=middle;whiteSpace=wrap;rounded=0;" vertex="1" parent="1">
          <mxGeometry x="820" y="330" width="170" height="30" as="geometry" />
        </mxCell>
        <mxCell id="8p0Jh4itUdJ0mji6k-67-51" value="" style="endArrow=classic;html=1;rounded=0;" edge="1" parent="1">
          <mxGeometry width="50" height="50" relative="1" as="geometry">
            <mxPoint x="810" y="344.5" as="sourcePoint" />
            <mxPoint x="775" y="344.5" as="targetPoint" />
          </mxGeometry>
        </mxCell>
      </root>
    </mxGraphModel>
  </diagram>
</mxfile>
